<svg width="400" height="471" viewBox="0 0 400 471" fill="none" xmlns="http://www.w3.org/2000/svg">
<ellipse cx="200" cy="230.5" rx="200" ry="215.5" fill="#F6F6F6"/>
<g filter="url(#filter0_d_216_68)">
<rect x="79.1104" y="0.792053" width="274" height="442" rx="4" transform="rotate(4.08976 79.1104 0.792053)" fill="#D9D9D9"/>
</g>
<rect x="49.9409" y="408.751" width="274" height="33" transform="rotate(4.08976 49.9409 408.751)" fill="#E9E9E9" fill-opacity="0.6"/>
<path d="M192.473 295.685L201.385 293.509C220.062 288.99 236.813 280.019 249.821 267.569C262.83 255.119 271.601 239.664 275.183 222.879L285.089 176.591C285.392 174.662 284.93 172.679 283.781 170.972C282.632 169.266 280.866 167.938 278.775 167.21L211.207 143.081L139.85 149.811C137.646 150.012 135.611 150.873 134.083 152.251C132.556 153.629 131.628 155.442 131.455 157.386L129.871 204.696C129.287 221.849 134.059 238.966 143.67 254.193C153.281 269.42 167.364 282.176 184.394 291.079L192.473 295.685Z" fill="#2CA9BC"/>
<path d="M173.849 207.341L191.122 226.673L233.994 197.513" stroke="black" stroke-width="12" stroke-linecap="round" stroke-linejoin="round"/>
<path d="M192.473 295.685L201.385 293.509C220.062 288.99 236.813 280.019 249.821 267.569C262.83 255.119 271.601 239.664 275.183 222.879L285.089 176.591C285.392 174.662 284.93 172.679 283.781 170.973C282.632 169.266 280.866 167.938 278.775 167.21L211.207 143.081L139.85 149.811C137.646 150.012 135.611 150.873 134.083 152.251C132.556 153.629 131.628 155.442 131.455 157.386L129.871 204.696C129.287 221.849 134.059 238.966 143.67 254.193C153.281 269.42 167.364 282.176 184.394 291.079L192.473 295.685Z" stroke="black" stroke-width="15" stroke-linecap="round" stroke-linejoin="round"/>
<defs>
<filter id="filter0_d_216_68" x="43.8622" y="1.06696" width="312.276" height="469.866" filterUnits="userSpaceOnUse" color-interpolation-filters="sRGB">
<feFlood flood-opacity="0" result="BackgroundImageFix"/>
<feColorMatrix in="SourceAlpha" type="matrix" values="0 0 0 0 0 0 0 0 0 0 0 0 0 0 0 0 0 0 127 0" result="hardAlpha"/>
<feOffset dy="6"/>
<feGaussianBlur stdDeviation="2"/>
<feComposite in2="hardAlpha" operator="out"/>
<feColorMatrix type="matrix" values="0 0 0 0 0 0 0 0 0 0 0 0 0 0 0 0 0 0 0.25 0"/>
<feBlend mode="normal" in2="BackgroundImageFix" result="effect1_dropShadow_216_68"/>
<feBlend mode="normal" in="SourceGraphic" in2="effect1_dropShadow_216_68" result="shape"/>
</filter>
</defs>
</svg>
