<svg width="74" height="80" viewBox="0 0 74 80" fill="none" xmlns="http://www.w3.org/2000/svg">
<path d="M0 4.9094V75.087C0.000468353 75.2393 0.0457057 75.388 0.13004 75.5146C0.214374 75.6411 0.33405 75.7399 0.474061 75.7984C0.614073 75.8569 0.768188 75.8727 0.917079 75.8437C1.06597 75.8146 1.20301 75.7421 1.31102 75.6352L37.7118 40L1.31102 4.36119C1.20301 4.25429 1.06597 4.18179 0.917079 4.15276C0.768188 4.12373 0.614073 4.13948 0.474061 4.19803C0.33405 4.25657 0.214374 4.35531 0.13004 4.48186C0.0457057 4.60841 0.000468353 4.75714 0 4.9094ZM52.9744 25.3573L7.33245 0.114817L7.30399 0.0987454C6.51773 -0.32982 5.77061 0.738023 6.41456 1.35944L42.1927 35.7018L52.9744 25.3573ZM6.41812 78.6406C5.77061 79.262 6.51773 80.3298 7.30754 79.9013L7.33601 79.8852L52.9744 54.6427L42.1927 44.2946L6.41812 78.6406ZM71.3998 35.5358L58.6542 28.4894L46.6701 40L58.6542 51.5052L71.3998 44.4642C74.8667 42.541 74.8667 37.459 71.3998 35.5358Z" fill="#28A3FC"/>
</svg>
